<?xml version="1.0"?>
<svg xmlns="http://www.w3.org/2000/svg" xmlns:xlink="http://www.w3.org/1999/xlink" version="1.1" id="Capa_1" x="0px" y="0px" viewBox="0 0 480 480" style="enable-background:new 0 0 480 480;" xml:space="preserve" width="512px" height="512px" class=""><g><g>
	<g>
		<path d="M80,0H64c0,17.673-14.327,32-32,32v16c17.673,0,32,14.327,32,32h16c0-17.673,14.327-32,32-32V32C94.327,32,80,17.673,80,0    z M72,53.496L71.928,53.4C68.4,48.128,63.872,43.6,58.6,40.072L58.504,40c5.35-3.558,9.938-8.146,13.496-13.496    c3.558,5.35,8.146,9.938,13.496,13.496C80.146,43.558,75.558,48.146,72,53.496z" data-original="#000000" class="active-path" data-old_color="#ffffff" fill="#ffffff"/>
	</g>
</g><g>
	<g>
		<path d="M416,16h-16c0,17.673-14.327,32-32,32v16c17.673,0,32,14.327,32,32h16c0-17.673,14.327-32,32-32V48    C430.327,48,416,33.673,416,16z M408,69.496l-0.072-0.096c-3.528-5.272-8.056-9.8-13.328-13.328L394.504,56    c5.35-3.558,9.938-8.146,13.496-13.496c3.558,5.35,8.146,9.938,13.496,13.496C416.146,59.558,411.558,64.146,408,69.496z" data-original="#000000" class="active-path" data-old_color="#ffffff" fill="#ffffff"/>
	</g>
</g><g>
	<g>
		<path d="M472,104H335.592c0.224-2.648,0.408-5.296,0.408-8c0-53.019-42.981-96-96-96s-96,42.981-96,96    c0,2.704,0.184,5.352,0.408,8H56c-30.888,0.004-55.924,25.048-55.92,55.936c0,0.021,0,0.043,0,0.064H0v264    c0.035,30.913,25.087,55.965,56,56h416c4.418,0,8-3.582,8-8V112C480,107.582,476.418,104,472,104z M240,16    c44.183,0,80,35.817,80,80s-35.817,80-80,80s-80-35.817-80-80C160.049,51.837,195.837,16.049,240,16z M464,352H336v-64h128V352z     M464,272H328c-4.418,0-8,3.582-8,8v80c0,4.418,3.582,8,8,8h136v96H56c-22.08-0.026-39.974-17.92-40-40V197.84    c10.965,11.279,25.922,17.8,41.648,18.16H464V272z M464,200H57.648c-19.789-0.469-36.738-14.305-41.16-33.6    c-2.074-12.705,2.126-25.629,11.272-34.688C35.216,124.17,45.395,119.948,56,120h91.2c2.976,11.508,8.071,22.36,15.024,32H32v16    h144.712c36.125,31.999,90.451,31.999,126.576,0H464V200z M464,152H317.816c6.953-9.64,12.048-20.492,15.024-32H464V152z" data-original="#000000" class="active-path" data-old_color="#ffffff" fill="#ffffff"/>
	</g>
</g><g>
	<g>
		<rect x="352" y="312" width="16" height="16" data-original="#000000" class="active-path" data-old_color="#ffffff" fill="#ffffff"/>
	</g>
</g><g>
	<g>
		<path d="M273.76,96c8.894-9.75,8.2-24.864-1.55-33.758c-4.429-4.04-10.215-6.268-16.21-6.242h-8V40h-16v16h-8V40h-16v16    c-4.418,0-8,3.582-8,8v64c0,4.418,3.582,8,8,8v16h16v-16h8v16h16v-16h8c13.197,0.058,23.943-10.593,24.002-23.79    C280.028,106.215,277.8,100.429,273.76,96z M256,120h-40v-16h40c4.418,0,8,3.582,8,8S260.418,120,256,120z M256,88h-40V72h40    c4.418,0,8,3.582,8,8S260.418,88,256,88z" data-original="#000000" class="active-path" data-old_color="#ffffff" fill="#ffffff"/>
	</g>
</g></g> </svg>
